<svg version="1.1" id="Layer_1" xmlns="http://www.w3.org/2000/svg" xmlns:xlink="http://www.w3.org/1999/xlink" x="0px" y="0px"
	 viewBox="0 0 201.3 35.9" style="enable-background:new 0 0 201.3 35.9;" xml:space="preserve">
<style type="text/css">
	.st0{fill:#ff6600;}
</style>
<g>
	<g>
		<path class="st0" d="M164.3,3.3h-26.8c-0.9,0-1.6,0.7-1.6,1.6v1.8c0,0.9,0.7,1.6,1.6,1.6h26.8c0.9,0,1.6-0.7,1.6-1.6V4.9
			C165.9,4,165.2,3.3,164.3,3.3z"/>
		<path class="st0" d="M30.3,3.3H3.4C2.6,3.3,1.8,4,1.8,4.9v26.2c0,1.1,1.2,1.9,2.2,1.5l26.8-11.2c0.6-0.2,1-0.8,1-1.5V4.9
			C31.8,4,31.1,3.3,30.3,3.3z M25.8,17.4c0,0.6-0.4,1.2-1,1.5L10,25.1c-1.1,0.4-2.2-0.3-2.2-1.5V9.9c0-0.9,0.7-1.6,1.6-1.6h14.8
			c0.9,0,1.6,0.7,1.6,1.6V17.4z"/>
		<path class="st0" d="M64.2,3.3H37.3c-0.9,0-1.6,0.7-1.6,1.6v1.8c0,0.9,0.7,1.6,1.6,1.6h26.8c0.9,0,1.6-0.7,1.6-1.6V4.9
			C65.8,4,65,3.3,64.2,3.3z"/>
		<path class="st0" d="M64.2,9.5H37.3c-0.9,0-1.6,0.7-1.6,1.6v1.8c0,0.9,0.7,1.6,1.6,1.6h26.8c0.9,0,1.6-0.7,1.6-1.6v-1.8
			C65.8,10.2,65,9.5,64.2,9.5z"/>
		<path class="st0" d="M64.2,15.8H37.3c-0.9,0-1.6,0.7-1.6,1.6v1.8c0,0.9,0.7,1.6,1.6,1.6h26.8c0.9,0,1.6-0.7,1.6-1.6v-1.8
			C65.8,16.5,65,15.8,64.2,15.8z"/>
		<path class="st0" d="M97,3.4L84.8,9c-0.4,0.2-0.8,0.2-1.2,0L71.4,3.4c-1.1-0.5-2.2,0.4-2.2,1.6v1.7c0,0.7,0.4,1.3,1,1.6l6.4,2.9
			c0.6,0.3,0.6,1.2,0,1.5l-6.4,2.9c-0.6,0.3-1,0.9-1,1.6V19c0,1.3,1.2,2.1,2.2,1.6L83.6,15c0.4-0.2,0.8-0.2,1.2,0L97,20.6
			c1.1,0.5,2.2-0.4,2.2-1.6v-1.7c0-0.7-0.4-1.3-1-1.6l-6.4-2.9c-0.6-0.3-0.6-1.2,0-1.5l6.4-2.9c0.6-0.3,1-0.9,1-1.6V5
			C99.2,3.8,98,2.9,97,3.4z"/>
		<path class="st0" d="M130.9,3.3h-26.8c-0.9,0-1.6,0.7-1.6,1.6v1.8c0,0.9,0.7,1.6,1.6,1.6h8.8c0.9,0,1.6,0.7,1.6,1.6v9.3
			c0,0.9,0.7,1.6,1.6,1.6h2.8c0.9,0,1.6-0.7,1.6-1.6V9.9c0-0.9,0.7-1.6,1.6-1.6h8.8c0.9,0,1.6-0.7,1.6-1.6V4.9
			C132.5,4,131.8,3.3,130.9,3.3z"/>
		<path class="st0" d="M164.3,9.5h-26.8c-0.9,0-1.6,0.7-1.6,1.6v1.8c0,0.9,0.7,1.6,1.6,1.6h26.8c0.9,0,1.6-0.7,1.6-1.6v-1.8
			C165.9,10.2,165.2,9.5,164.3,9.5z"/>
		<path class="st0" d="M164.3,15.8h-26.8c-0.9,0-1.6,0.7-1.6,1.6v1.8c0,0.9,0.7,1.6,1.6,1.6h26.8c0.9,0,1.6-0.7,1.6-1.6v-1.8
			C165.9,16.5,165.2,15.8,164.3,15.8z"/>
		<path class="st0" d="M197.6,3.3h-26.8c-0.9,0-1.6,0.7-1.6,1.6v1.8c0,0.9,0.7,1.6,1.6,1.6h4.4h4.2h12.2c0.9,0,1.6,0.7,1.6,1.6v4.3
			c0,0.9-0.7,1.6-1.6,1.6h-16.4h-4.4c-0.9,0-1.6,0.7-1.6,1.6v2.3c0,0.6,0.4,1.2,1,1.5L197,32.5c1.1,0.4,2.2-0.3,2.2-1.5v-1.5
			c0-0.6-0.4-1.2-1-1.5l-5-2.1l-2.5-1l-8.7-3.6l-1.3-0.5h16.9c0.9,0,1.6-0.7,1.6-1.6v-1.1v-2.4V4.9C199.2,4,198.5,3.3,197.6,3.3z"/>
	</g>
</g>
</svg>